<svg width="40" height="40" viewBox="0 0 40 40" fill="none" xmlns="http://www.w3.org/2000/svg">
<path d="M31.55 33.3334C28.7411 33.3334 25.8611 32.6301 22.91 31.2234C19.9589 29.8167 17.2172 27.8417 14.685 25.2984C12.1528 22.7551 10.1833 20.0134 8.77667 17.0734C7.37 14.1334 6.66667 11.259 6.66667 8.45008C6.66667 7.94119 6.83334 7.5173 7.16667 7.17841C7.50001 6.83953 7.91667 6.66897 8.41667 6.66675H12.5383C12.9917 6.66675 13.3872 6.80953 13.725 7.09508C14.0628 7.38064 14.2911 7.74675 14.41 8.19341L15.2367 12.1667C15.3144 12.6334 15.3006 13.0406 15.195 13.3884C15.0894 13.7362 14.9045 14.0212 14.64 14.2434L10.9833 17.6534C11.6678 18.8945 12.4239 20.0479 13.2517 21.1134C14.0794 22.179 14.9628 23.1884 15.9017 24.1417C16.8683 25.1084 17.9094 26.0084 19.025 26.8417C20.1406 27.674 21.365 28.4595 22.6983 29.1984L26.2633 25.5701C26.5345 25.2779 26.8394 25.0851 27.1783 24.9917C27.5161 24.8995 27.8906 24.8812 28.3017 24.9367L31.8067 25.6534C32.26 25.7645 32.6278 25.9929 32.91 26.3384C33.1922 26.684 33.3333 27.0795 33.3333 27.5251V31.5834C33.3333 32.0834 33.1633 32.5001 32.8233 32.8334C32.4833 33.1667 32.0578 33.3334 31.55 33.3334ZM10.2 16.0901L13.4 13.1484C13.5056 13.0629 13.5744 12.9451 13.6067 12.7951C13.64 12.6451 13.6344 12.5062 13.59 12.3784L12.8517 8.84508C12.8083 8.67508 12.7333 8.5473 12.6267 8.46175C12.52 8.37619 12.3817 8.33341 12.2117 8.33341H8.79167C8.66389 8.33341 8.55723 8.37619 8.47167 8.46175C8.38612 8.5473 8.34334 8.65397 8.34334 8.78175C8.37556 9.92064 8.55389 11.1095 8.87834 12.3484C9.20278 13.5873 9.64223 14.8345 10.2 16.0901ZM24.285 29.9801C25.4117 30.5379 26.6117 30.9506 27.885 31.2184C29.1606 31.4851 30.2717 31.6279 31.2183 31.6467C31.3461 31.6467 31.4528 31.604 31.5383 31.5184C31.6239 31.4329 31.6667 31.3267 31.6667 31.2001V27.8534C31.6667 27.6834 31.6239 27.5445 31.5383 27.4367C31.4528 27.3301 31.325 27.2556 31.155 27.2134L28.0717 26.5817C27.9428 26.5384 27.83 26.5329 27.7333 26.5651C27.6378 26.5984 27.5367 26.6679 27.43 26.7734L24.285 29.9801Z" fill="#080000"/>
</svg>
