<svg width="24" height="24" viewBox="0 0 24 24" fill="none" xmlns="http://www.w3.org/2000/svg">
<path d="M12 20.16C7.488 20.16 3.84 16.512 3.84 12C3.84 7.48803 7.488 3.84003 12 3.84003C16.512 3.84003 20.16 7.48803 20.16 12C20.16 16.512 16.512 20.16 12 20.16ZM12 4.80003C8.016 4.80003 4.8 8.01603 4.8 12C4.8 15.984 8.016 19.2 12 19.2C15.984 19.2 19.2 15.984 19.2 12C19.2 8.01603 15.984 4.80003 12 4.80003Z" fill="black"/>
<path d="M11.04 15.552L6.86401 11.376L7.53601 10.704L11.04 14.208L16.464 8.784L17.136 9.456L11.04 15.552Z" fill="black"/>
</svg>
