<svg width="41" height="40" viewBox="0 0 41 40" fill="none" xmlns="http://www.w3.org/2000/svg">
<path d="M26.8399 22.0583C26.9488 21.7361 27.0305 21.4083 27.0849 21.075C27.1394 20.7417 27.1666 20.3944 27.1666 20.0333C27.1666 18.1767 26.5199 16.6017 25.2266 15.3083C23.931 14.0128 22.3555 13.365 20.4999 13.365C20.1366 13.365 19.7905 13.3928 19.4616 13.4483C19.1327 13.5017 18.8072 13.5828 18.4849 13.6917L26.8399 22.0583ZM30.5699 25.7883L29.2883 24.4883C29.6649 23.5994 29.961 22.6272 30.1766 21.5717C30.3922 20.5161 30.4999 19.4922 30.4999 18.5V11.33C30.4999 11.1167 30.441 10.9244 30.3233 10.7533C30.2066 10.5822 30.041 10.4544 29.8266 10.37L20.8533 7.03667C20.7466 6.99223 20.6288 6.97 20.4999 6.97C20.371 6.97 20.2533 6.99223 20.1466 7.03667L14.0966 9.295L12.7949 7.995L19.5583 5.49C19.8616 5.37334 20.1755 5.315 20.4999 5.315C20.8244 5.315 21.1388 5.37334 21.4433 5.49L30.4166 8.82334C30.9277 9.03111 31.3472 9.36445 31.6749 9.82334C32.0027 10.2822 32.1666 10.795 32.1666 11.3617V18.5C32.1666 19.6389 32.0444 20.8067 31.7999 22.0033C31.5555 23.2 31.1455 24.4617 30.5699 25.7883ZM20.4999 34.77C20.3888 34.77 20.0738 34.7033 19.5549 34.57C16.2327 33.32 13.6149 31.2056 11.7016 28.2267C9.78827 25.2478 8.83216 22.0056 8.83327 18.5V10.6933L5.85993 7.71667C5.70327 7.56111 5.61993 7.37 5.60993 7.14334C5.59993 6.91667 5.68327 6.71445 5.85993 6.53667C6.0366 6.35889 6.23271 6.27 6.44827 6.27C6.66382 6.27 6.86049 6.35889 7.03827 6.53667L34.0883 33.5867C34.2449 33.7433 34.3283 33.935 34.3383 34.1617C34.3483 34.3883 34.2649 34.5906 34.0883 34.7683C33.9116 34.9461 33.7155 35.035 33.4999 35.035C33.2844 35.035 33.0877 34.9461 32.9099 34.7683L28.0199 29.8767C27.1244 30.9556 26.1333 31.8817 25.0466 32.655C23.9599 33.4283 22.7599 34.0661 21.4466 34.5683C21.301 34.6239 21.1449 34.6711 20.9783 34.71C20.8116 34.7478 20.6522 34.7667 20.4999 34.7667M20.4999 33.165C21.6855 32.795 22.8672 32.1778 24.0449 31.3133C25.2227 30.4467 26.1544 29.5744 26.8399 28.6967L23.8716 25.73C23.3783 26.03 22.8477 26.2667 22.2799 26.44C21.7133 26.6111 21.1199 26.6967 20.4999 26.6967C18.6433 26.6967 17.0683 26.05 15.7749 24.7567C14.4805 23.4633 13.8333 21.8883 13.8333 20.0317C13.8333 19.4117 13.9194 18.8183 14.0916 18.2517C14.2638 17.685 14.5005 17.1544 14.8016 16.66L10.4999 12.36V18.5C10.4999 21.8611 11.4444 24.9167 13.3333 27.6667C15.2222 30.4167 17.611 32.2483 20.4999 33.165Z" fill="black"/>
</svg>
