<svg width="41" height="40" viewBox="0 0 41 40" fill="none" xmlns="http://www.w3.org/2000/svg">
<path d="M3.83325 29.1667H13.8333M13.8333 34.1667H3.83325M27.1666 29.1667H37.1666M37.1666 34.1667H27.1666M22.9999 20H17.9999V26.6667H22.9999V20Z" stroke="black" stroke-width="1.5" stroke-linecap="round" stroke-linejoin="round"/>
<path d="M20.4998 11.6666L22.9998 9.16665M28.8332 11.6666C28.8332 13.8768 27.9552 15.9964 26.3924 17.5592C24.8296 19.122 22.71 20 20.4998 20C18.2897 20 16.1701 19.122 14.6073 17.5592C13.0445 15.9964 12.1665 13.8768 12.1665 11.6666C12.1665 9.45651 13.0445 7.33689 14.6073 5.77409C16.1701 4.21129 18.2897 3.33331 20.4998 3.33331C22.71 3.33331 24.8296 4.21129 26.3924 5.77409C27.9552 7.33689 28.8332 9.45651 28.8332 11.6666ZM23.8332 26.6666H17.1665C15.5948 26.6666 14.8098 26.6666 14.3215 27.155C13.8332 27.6433 13.8332 28.4283 13.8332 30V33.3333C13.8332 34.905 13.8332 35.69 14.3215 36.1783C14.8098 36.6666 15.5948 36.6666 17.1665 36.6666H23.8332C25.4048 36.6666 26.1898 36.6666 26.6782 36.1783C27.1665 35.69 27.1665 34.905 27.1665 33.3333V30C27.1665 28.4283 27.1665 27.6433 26.6782 27.155C26.1898 26.6666 25.4048 26.6666 23.8332 26.6666Z" stroke="black" stroke-width="1.5" stroke-linecap="round" stroke-linejoin="round"/>
</svg>
