<svg width="41" height="40" viewBox="0 0 41 40" fill="none" xmlns="http://www.w3.org/2000/svg">
<path d="M20.5 8.33331C19.1739 8.33331 17.9021 8.8601 16.9645 9.79778C16.0268 10.7355 15.5 12.0072 15.5 13.3333V35.6666C15.5 35.798 15.5259 35.928 15.5761 36.0493C15.6264 36.1707 15.7 36.2809 15.7929 36.3738C15.8858 36.4666 15.996 36.5403 16.1173 36.5905C16.2386 36.6408 16.3687 36.6666 16.5 36.6666H24.5C24.6313 36.6666 24.7614 36.6408 24.8827 36.5905C25.004 36.5403 25.1142 36.4666 25.2071 36.3738C25.3 36.2809 25.3736 36.1707 25.4239 36.0493C25.4741 35.928 25.5 35.798 25.5 35.6666V13.3333C25.5 12.0072 24.9732 10.7355 24.0355 9.79778C23.0979 8.8601 21.8261 8.33331 20.5 8.33331ZM20.5 8.33331V3.33331M15.5 18.3333H25.5M20.5 3.33331H18.8333M20.5 3.33331H22.1667" stroke="black" stroke-width="1.5" stroke-linecap="round"/>
</svg>
