<svg width="41" height="40" viewBox="0 0 41 40" fill="none" xmlns="http://www.w3.org/2000/svg">
<path fill-rule="evenodd" clip-rule="evenodd" d="M20.9117 34.9483C22.8286 33.209 24.6026 31.3184 26.2167 29.295C29.6167 25.0233 31.6851 20.8116 31.8251 17.0666C31.8805 15.5446 31.6285 14.0271 31.0843 12.6046C30.5401 11.1822 29.7147 9.88397 28.6576 8.78763C27.6004 7.69128 26.3331 6.81926 24.9314 6.22365C23.5297 5.62804 22.0223 5.32107 20.4992 5.32107C18.9762 5.32107 17.4688 5.62804 16.0671 6.22365C14.6654 6.81926 13.3981 7.69128 12.3409 8.78763C11.2838 9.88397 10.4584 11.1822 9.91418 12.6046C9.36995 14.0271 9.11802 15.5446 9.17341 17.0666C9.31508 20.8116 11.3851 25.0233 14.7834 29.295C16.3975 31.3184 18.1716 33.209 20.0884 34.9483C20.2729 35.115 20.4101 35.2361 20.5001 35.3116L20.9117 34.9483ZM19.2701 36.89C19.2701 36.89 7.16675 26.6966 7.16675 16.6666C7.16675 13.1304 8.57151 9.73904 11.072 7.23856C13.5725 4.73807 16.9639 3.33331 20.5001 3.33331C24.0363 3.33331 27.4277 4.73807 29.9282 7.23856C32.4287 9.73904 33.8334 13.1304 33.8334 16.6666C33.8334 26.6966 21.7301 36.89 21.7301 36.89C21.0567 37.51 19.9484 37.5033 19.2701 36.89ZM20.5001 21.3333C21.7378 21.3333 22.9247 20.8417 23.7999 19.9665C24.6751 19.0913 25.1667 17.9043 25.1667 16.6666C25.1667 15.429 24.6751 14.242 23.7999 13.3668C22.9247 12.4916 21.7378 12 20.5001 12C19.2624 12 18.0754 12.4916 17.2002 13.3668C16.3251 14.242 15.8334 15.429 15.8334 16.6666C15.8334 17.9043 16.3251 19.0913 17.2002 19.9665C18.0754 20.8417 19.2624 21.3333 20.5001 21.3333ZM20.5001 23.3333C18.732 23.3333 17.0363 22.6309 15.786 21.3807C14.5358 20.1304 13.8334 18.4348 13.8334 16.6666C13.8334 14.8985 14.5358 13.2028 15.786 11.9526C17.0363 10.7024 18.732 9.99998 20.5001 9.99998C22.2682 9.99998 23.9639 10.7024 25.2141 11.9526C26.4644 13.2028 27.1667 14.8985 27.1667 16.6666C27.1667 18.4348 26.4644 20.1304 25.2141 21.3807C23.9639 22.6309 22.2682 23.3333 20.5001 23.3333Z" fill="black"/>
</svg>
