<svg width="40" height="40" viewBox="0 0 40 40" fill="none" xmlns="http://www.w3.org/2000/svg">
<path d="M20.9333 34.7C20.6613 34.8953 20.3349 35.0004 20 35.0004C19.6651 35.0004 19.3387 34.8953 19.0667 34.7C11.0183 28.9633 2.47667 17.1633 11.1117 8.63667C13.4822 6.30475 16.6747 4.99854 20 5C23.3333 5 26.5317 6.30833 28.8883 8.635C37.5233 17.1617 28.9817 28.96 20.9333 34.7Z" stroke="#080000" stroke-width="1.5" stroke-linecap="round" stroke-linejoin="round"/>
<path d="M20 19.9999C20.8841 19.9999 21.7319 19.6487 22.357 19.0236C22.9822 18.3985 23.3334 17.5506 23.3334 16.6666C23.3334 15.7825 22.9822 14.9347 22.357 14.3096C21.7319 13.6844 20.8841 13.3333 20 13.3333C19.116 13.3333 18.2681 13.6844 17.643 14.3096C17.0179 14.9347 16.6667 15.7825 16.6667 16.6666C16.6667 17.5506 17.0179 18.3985 17.643 19.0236C18.2681 19.6487 19.116 19.9999 20 19.9999Z" stroke="#080000" stroke-width="1.5" stroke-linecap="round" stroke-linejoin="round"/>
</svg>
