<svg xmlns="http://www.w3.org/2000/svg" xmlns:xlink="http://www.w3.org/1999/xlink" width="500" zoomAndPan="magnify" viewBox="0 0 375 374.999991" height="500" preserveAspectRatio="xMidYMid meet" version="1.2"><defs><clipPath id="820cb1a9dc"><path d="M 146 169 L 177 169 L 177 224.511719 L 146 224.511719 Z M 146 169 "/></clipPath><clipPath id="79a86e3cf2"><path d="M 140 60.261719 L 200 60.261719 L 200 217 L 140 217 Z M 140 60.261719 "/></clipPath></defs><g id="d1ac6b2f29"><rect x="0" width="375" y="0" height="374.999991" style="fill:#ffffff;fill-opacity:1;stroke:none;"/><rect x="0" width="375" y="0" height="374.999991" style="fill:#000000;fill-opacity:1;stroke:none;"/><g clip-rule="nonzero" clip-path="url(#820cb1a9dc)"><path style=" stroke:none;fill-rule:nonzero;fill:#ff1616;fill-opacity:1;" d="M 146.457031 169.496094 C 147.097656 185.972656 154.875 194.550781 161.464844 201.800781 C 167.558594 208.5 175.730469 214.605469 173.898438 224.503906 C 175.238281 221.648438 175.523438 220.039062 176.164062 217.238281 C 180.308594 199.03125 151.019531 188.304688 146.457031 169.496094 "/></g><g clip-rule="nonzero" clip-path="url(#79a86e3cf2)"><path style=" stroke:none;fill-rule:nonzero;fill:#ff1616;fill-opacity:1;" d="M 184.933594 216.675781 C 215.652344 186.242188 191.269531 152.925781 179.75 135.074219 C 157.136719 100.023438 183.386719 67.382812 191.339844 60.261719 C 153.746094 65.539062 130.699219 119.179688 144.414062 148.078125 C 155.699219 171.851562 183.390625 187.089844 184.933594 216.675781 "/></g><path style=" stroke:none;fill-rule:nonzero;fill:#ffde59;fill-opacity:1;" d="M 208.59375 191.398438 C 235.453125 172.175781 244.300781 141.441406 226.804688 122.355469 C 211.699219 105.867188 193.167969 96.066406 191.753906 70.90625 C 174.828125 95.167969 183.726562 115.351562 198.957031 133.714844 C 219.324219 158.269531 210.859375 186.875 208.59375 191.398438 "/><g style="fill:#ffffff;fill-opacity:1;"><g transform="translate(78.851755, 274.88712)"><path style="stroke:none" d="M 14.21875 -31.84375 L 18.359375 -31.84375 C 18.773438 -31.84375 18.984375 -31.632812 18.984375 -31.21875 L 18.984375 -0.640625 C 18.984375 -0.210938 18.773438 0 18.359375 0 L 14.40625 0 C 14.039062 0 13.804688 -0.171875 13.703125 -0.515625 L 7.609375 -17.515625 L 7.40625 -17.515625 L 7.40625 -0.640625 C 7.40625 -0.210938 7.191406 0 6.765625 0 L 2.625 0 C 2.195312 0 1.984375 -0.210938 1.984375 -0.640625 L 1.984375 -31.21875 C 1.984375 -31.632812 2.195312 -31.84375 2.625 -31.84375 L 6.5625 -31.84375 C 6.9375 -31.84375 7.175781 -31.671875 7.28125 -31.328125 L 13.34375 -14.40625 L 13.578125 -14.40625 L 13.578125 -31.21875 C 13.578125 -31.632812 13.789062 -31.84375 14.21875 -31.84375 Z M 14.21875 -31.84375 "/></g></g><g style="fill:#ffffff;fill-opacity:1;"><g transform="translate(103.217666, 274.88712)"><path style="stroke:none" d="M 21.1875 0 L 16.953125 0 C 16.609375 0 16.398438 -0.1875 16.328125 -0.5625 L 15.203125 -6.375 L 8.125 -6.375 L 7.046875 -0.5625 C 6.960938 -0.1875 6.75 0 6.40625 0 L 2.15625 0 C 1.675781 0 1.5 -0.222656 1.625 -0.671875 L 8.234375 -31.296875 C 8.316406 -31.660156 8.546875 -31.84375 8.921875 -31.84375 L 14.453125 -31.84375 C 14.828125 -31.84375 15.050781 -31.660156 15.125 -31.296875 L 21.734375 -0.671875 C 21.816406 -0.222656 21.632812 0 21.1875 0 Z M 14.21875 -10.984375 L 11.671875 -24.890625 L 9.109375 -10.984375 Z M 14.21875 -10.984375 "/></g></g><g style="fill:#ffffff;fill-opacity:1;"><g transform="translate(129.932511, 274.88712)"><path style="stroke:none" d="M 1.828125 -31.84375 L 16.484375 -31.84375 C 16.910156 -31.84375 17.125 -31.632812 17.125 -31.21875 L 17.125 -27.234375 C 17.125 -26.804688 16.910156 -26.59375 16.484375 -26.59375 L 11.859375 -26.59375 L 11.859375 -0.640625 C 11.859375 -0.210938 11.648438 0 11.234375 0 L 7.09375 0 C 6.664062 0 6.453125 -0.210938 6.453125 -0.640625 L 6.453125 -26.59375 L 1.828125 -26.59375 C 1.398438 -26.59375 1.1875 -26.804688 1.1875 -27.234375 L 1.1875 -31.21875 C 1.1875 -31.632812 1.398438 -31.84375 1.828125 -31.84375 Z M 1.828125 -31.84375 "/></g></g><g style="fill:#ffffff;fill-opacity:1;"><g transform="translate(151.631004, 274.88712)"><path style="stroke:none" d="M 2.625 -31.84375 L 6.765625 -31.84375 C 7.191406 -31.84375 7.40625 -31.632812 7.40625 -31.21875 L 7.40625 -0.640625 C 7.40625 -0.210938 7.191406 0 6.765625 0 L 2.625 0 C 2.195312 0 1.984375 -0.210938 1.984375 -0.640625 L 1.984375 -31.21875 C 1.984375 -31.632812 2.195312 -31.84375 2.625 -31.84375 Z M 2.625 -31.84375 "/></g></g><g style="fill:#ffffff;fill-opacity:1;"><g transform="translate(164.411552, 274.88712)"><path style="stroke:none" d="M 1.984375 -5.734375 L 1.984375 -26.109375 C 1.984375 -27.992188 2.472656 -29.421875 3.453125 -30.390625 C 4.441406 -31.359375 5.863281 -31.84375 7.71875 -31.84375 L 12.1875 -31.84375 C 14.070312 -31.84375 15.5 -31.359375 16.46875 -30.390625 C 17.4375 -29.421875 17.921875 -27.992188 17.921875 -26.109375 L 17.921875 -5.734375 C 17.921875 -3.878906 17.4375 -2.457031 16.46875 -1.46875 C 15.5 -0.488281 14.070312 0 12.1875 0 L 7.71875 0 C 5.863281 0 4.441406 -0.488281 3.453125 -1.46875 C 2.472656 -2.457031 1.984375 -3.878906 1.984375 -5.734375 Z M 8.875 -5.140625 L 11.1875 -5.140625 C 12.25 -5.140625 12.78125 -5.671875 12.78125 -6.734375 L 12.78125 -25.125 C 12.78125 -26.1875 12.25 -26.71875 11.1875 -26.71875 L 8.875 -26.71875 C 7.8125 -26.71875 7.28125 -26.1875 7.28125 -25.125 L 7.28125 -6.734375 C 7.28125 -5.671875 7.8125 -5.140625 8.875 -5.140625 Z M 8.875 -5.140625 "/></g></g><g style="fill:#ffffff;fill-opacity:1;"><g transform="translate(187.702536, 274.88712)"><path style="stroke:none" d="M 14.21875 -31.84375 L 18.359375 -31.84375 C 18.773438 -31.84375 18.984375 -31.632812 18.984375 -31.21875 L 18.984375 -0.640625 C 18.984375 -0.210938 18.773438 0 18.359375 0 L 14.40625 0 C 14.039062 0 13.804688 -0.171875 13.703125 -0.515625 L 7.609375 -17.515625 L 7.40625 -17.515625 L 7.40625 -0.640625 C 7.40625 -0.210938 7.191406 0 6.765625 0 L 2.625 0 C 2.195312 0 1.984375 -0.210938 1.984375 -0.640625 L 1.984375 -31.21875 C 1.984375 -31.632812 2.195312 -31.84375 2.625 -31.84375 L 6.5625 -31.84375 C 6.9375 -31.84375 7.175781 -31.671875 7.28125 -31.328125 L 13.34375 -14.40625 L 13.578125 -14.40625 L 13.578125 -31.21875 C 13.578125 -31.632812 13.789062 -31.84375 14.21875 -31.84375 Z M 14.21875 -31.84375 "/></g></g><g style="fill:#ffffff;fill-opacity:1;"><g transform="translate(212.068447, 274.88712)"><path style="stroke:none" d=""/></g></g><g style="fill:#ffffff;fill-opacity:1;"><g transform="translate(225.406373, 274.88712)"><path style="stroke:none" d="M 1.984375 -5.734375 L 1.984375 -26.109375 C 1.984375 -27.992188 2.472656 -29.421875 3.453125 -30.390625 C 4.441406 -31.359375 5.863281 -31.84375 7.71875 -31.84375 L 12.984375 -31.84375 C 14.835938 -31.84375 16.253906 -31.359375 17.234375 -30.390625 C 18.222656 -29.421875 18.71875 -27.992188 18.71875 -26.109375 L 18.71875 -21.96875 C 18.71875 -21.550781 18.503906 -21.34375 18.078125 -21.34375 L 14.09375 -21.34375 C 13.664062 -21.34375 13.453125 -21.550781 13.453125 -21.96875 L 13.453125 -25 C 13.453125 -26.0625 12.921875 -26.59375 11.859375 -26.59375 L 9 -26.59375 C 7.9375 -26.59375 7.40625 -26.0625 7.40625 -25 L 7.40625 -6.84375 C 7.40625 -5.78125 7.9375 -5.25 9 -5.25 L 11.859375 -5.25 C 12.921875 -5.25 13.453125 -5.78125 13.453125 -6.84375 L 13.453125 -12.1875 L 11.390625 -12.1875 C 10.960938 -12.1875 10.75 -12.394531 10.75 -12.8125 L 10.75 -16.796875 C 10.75 -17.222656 10.960938 -17.4375 11.390625 -17.4375 L 18.078125 -17.4375 C 18.503906 -17.4375 18.71875 -17.222656 18.71875 -16.796875 L 18.71875 -5.734375 C 18.71875 -3.878906 18.222656 -2.457031 17.234375 -1.46875 C 16.253906 -0.488281 14.835938 0 12.984375 0 L 7.71875 0 C 5.863281 0 4.441406 -0.488281 3.453125 -1.46875 C 2.472656 -2.457031 1.984375 -3.878906 1.984375 -5.734375 Z M 1.984375 -5.734375 "/></g></g><g style="fill:#ffffff;fill-opacity:1;"><g transform="translate(249.493602, 274.88712)"><path style="stroke:none" d="M 21.1875 0 L 16.953125 0 C 16.609375 0 16.398438 -0.1875 16.328125 -0.5625 L 15.203125 -6.375 L 8.125 -6.375 L 7.046875 -0.5625 C 6.960938 -0.1875 6.75 0 6.40625 0 L 2.15625 0 C 1.675781 0 1.5 -0.222656 1.625 -0.671875 L 8.234375 -31.296875 C 8.316406 -31.660156 8.546875 -31.84375 8.921875 -31.84375 L 14.453125 -31.84375 C 14.828125 -31.84375 15.050781 -31.660156 15.125 -31.296875 L 21.734375 -0.671875 C 21.816406 -0.222656 21.632812 0 21.1875 0 Z M 14.21875 -10.984375 L 11.671875 -24.890625 L 9.109375 -10.984375 Z M 14.21875 -10.984375 "/></g></g><g style="fill:#ffffff;fill-opacity:1;"><g transform="translate(276.208446, 274.88712)"><path style="stroke:none" d="M 7.71875 -31.84375 L 12.1875 -31.84375 C 14.070312 -31.84375 15.5 -31.359375 16.46875 -30.390625 C 17.4375 -29.421875 17.921875 -27.992188 17.921875 -26.109375 L 17.921875 -21.890625 C 17.921875 -21.472656 17.707031 -21.265625 17.28125 -21.265625 L 13.140625 -21.265625 C 12.710938 -21.265625 12.5 -21.472656 12.5 -21.890625 L 12.5 -25 C 12.5 -26.0625 11.96875 -26.59375 10.90625 -26.59375 L 9 -26.59375 C 7.9375 -26.59375 7.40625 -26.0625 7.40625 -25 L 7.40625 -19.515625 L 16.875 -16.40625 C 17.570312 -16.113281 17.921875 -15.625 17.921875 -14.9375 L 17.921875 -5.734375 C 17.921875 -3.878906 17.4375 -2.457031 16.46875 -1.46875 C 15.5 -0.488281 14.070312 0 12.1875 0 L 7.71875 0 C 5.863281 0 4.441406 -0.488281 3.453125 -1.46875 C 2.472656 -2.457031 1.984375 -3.878906 1.984375 -5.734375 L 1.984375 -9.90625 C 1.984375 -10.332031 2.195312 -10.546875 2.625 -10.546875 L 6.765625 -10.546875 C 7.191406 -10.546875 7.40625 -10.332031 7.40625 -9.90625 L 7.40625 -6.84375 C 7.40625 -5.78125 7.9375 -5.25 9 -5.25 L 10.90625 -5.25 C 11.96875 -5.25 12.5 -5.78125 12.5 -6.84375 L 12.5 -12.140625 L 3.0625 -15.25 C 2.34375 -15.488281 1.984375 -15.976562 1.984375 -16.71875 L 1.984375 -26.109375 C 1.984375 -27.992188 2.472656 -29.421875 3.453125 -30.390625 C 4.441406 -31.359375 5.863281 -31.84375 7.71875 -31.84375 Z M 7.71875 -31.84375 "/></g></g><g style="fill:#ffde59;fill-opacity:1;"><g transform="translate(118.361374, 309.126102)"><path style="stroke:none" d="M 4.453125 -3.15625 L 4.453125 -18.75 C 4.453125 -19.007812 4.320312 -19.140625 4.0625 -19.140625 L 1.578125 -19.140625 C 1.328125 -19.140625 1.203125 -19.007812 1.203125 -18.75 L 1.203125 -0.375 C 1.203125 -0.125 1.328125 0 1.578125 0 L 10.140625 0 C 10.398438 0 10.53125 -0.125 10.53125 -0.375 L 10.53125 -2.78125 C 10.53125 -3.03125 10.398438 -3.15625 10.140625 -3.15625 Z M 4.453125 -3.15625 "/></g></g><g style="fill:#ffde59;fill-opacity:1;"><g transform="translate(140.800982, 309.126102)"><path style="stroke:none" d="M 1.578125 -19.140625 L 4.0625 -19.140625 C 4.320312 -19.140625 4.453125 -19.007812 4.453125 -18.75 L 4.453125 -0.375 C 4.453125 -0.125 4.320312 0 4.0625 0 L 1.578125 0 C 1.328125 0 1.203125 -0.125 1.203125 -0.375 L 1.203125 -18.75 C 1.203125 -19.007812 1.328125 -19.140625 1.578125 -19.140625 Z M 1.578125 -19.140625 "/></g></g><g style="fill:#ffde59;fill-opacity:1;"><g transform="translate(157.165426, 309.126102)"><path style="stroke:none" d="M 11.203125 -19.140625 L 14.359375 -19.140625 C 14.671875 -19.140625 14.828125 -18.976562 14.828125 -18.65625 L 14.828125 -0.484375 C 14.828125 -0.160156 14.671875 0 14.359375 0 L 12.125 0 C 11.8125 0 11.65625 -0.160156 11.65625 -0.484375 L 11.65625 -11.25 L 11.484375 -11.25 L 9.109375 -0.4375 C 9.046875 -0.144531 8.875 0 8.59375 0 L 7.421875 0 C 7.148438 0 6.972656 -0.144531 6.890625 -0.4375 L 4.515625 -11.25 L 4.359375 -11.25 L 4.359375 -0.484375 C 4.359375 -0.160156 4.195312 0 3.875 0 L 1.671875 0 C 1.359375 0 1.203125 -0.160156 1.203125 -0.484375 L 1.203125 -18.65625 C 1.203125 -18.976562 1.359375 -19.140625 1.671875 -19.140625 L 4.828125 -19.140625 C 5.117188 -19.140625 5.296875 -18.992188 5.359375 -18.703125 L 8.015625 -6.796875 L 10.671875 -18.703125 C 10.742188 -18.992188 10.921875 -19.140625 11.203125 -19.140625 Z M 11.203125 -19.140625 "/></g></g><g style="fill:#ffde59;fill-opacity:1;"><g transform="translate(183.910278, 309.126102)"><path style="stroke:none" d="M 1.578125 -19.140625 L 4.0625 -19.140625 C 4.320312 -19.140625 4.453125 -19.007812 4.453125 -18.75 L 4.453125 -0.375 C 4.453125 -0.125 4.320312 0 4.0625 0 L 1.578125 0 C 1.328125 0 1.203125 -0.125 1.203125 -0.375 L 1.203125 -18.75 C 1.203125 -19.007812 1.328125 -19.140625 1.578125 -19.140625 Z M 1.578125 -19.140625 "/></g></g><g style="fill:#ffde59;fill-opacity:1;"><g transform="translate(200.274722, 309.126102)"><path style="stroke:none" d="M 1.09375 -19.140625 L 9.90625 -19.140625 C 10.15625 -19.140625 10.28125 -19.007812 10.28125 -18.75 L 10.28125 -16.359375 C 10.28125 -16.109375 10.15625 -15.984375 9.90625 -15.984375 L 7.125 -15.984375 L 7.125 -0.375 C 7.125 -0.125 7 0 6.75 0 L 4.265625 0 C 4.003906 0 3.875 -0.125 3.875 -0.375 L 3.875 -15.984375 L 1.09375 -15.984375 C 0.84375 -15.984375 0.71875 -16.109375 0.71875 -16.359375 L 0.71875 -18.75 C 0.71875 -19.007812 0.84375 -19.140625 1.09375 -19.140625 Z M 1.09375 -19.140625 "/></g></g><g style="fill:#ffde59;fill-opacity:1;"><g transform="translate(221.996797, 309.126102)"><path style="stroke:none" d="M 10.734375 -18.75 L 10.734375 -16.359375 C 10.734375 -16.085938 10.609375 -15.953125 10.359375 -15.953125 L 4.375 -15.953125 L 4.375 -11.171875 L 8.953125 -11.171875 C 9.203125 -11.171875 9.328125 -11.035156 9.328125 -10.765625 L 9.328125 -8.390625 C 9.328125 -8.117188 9.203125 -7.984375 8.953125 -7.984375 L 4.375 -7.984375 L 4.375 -3.15625 L 10.359375 -3.15625 C 10.609375 -3.15625 10.734375 -3.03125 10.734375 -2.78125 L 10.734375 -0.375 C 10.734375 -0.125 10.609375 0 10.359375 0 L 1.5625 0 C 1.320312 0 1.203125 -0.125 1.203125 -0.375 L 1.203125 -18.75 C 1.203125 -19.007812 1.320312 -19.140625 1.5625 -19.140625 L 10.359375 -19.140625 C 10.609375 -19.140625 10.734375 -19.007812 10.734375 -18.75 Z M 10.734375 -18.75 "/></g></g><g style="fill:#ffde59;fill-opacity:1;"><g transform="translate(244.651668, 309.126102)"><path style="stroke:none" d="M 1.203125 -0.375 L 1.203125 -18.75 C 1.203125 -19.007812 1.328125 -19.140625 1.578125 -19.140625 L 7.3125 -19.140625 C 8.445312 -19.140625 9.304688 -18.84375 9.890625 -18.25 C 10.472656 -17.664062 10.765625 -16.804688 10.765625 -15.671875 L 10.765625 -3.4375 C 10.765625 -2.320312 10.472656 -1.46875 9.890625 -0.875 C 9.304688 -0.289062 8.445312 0 7.3125 0 L 1.578125 0 C 1.328125 0 1.203125 -0.125 1.203125 -0.375 Z M 4.453125 -3.15625 L 6.65625 -3.15625 C 7.289062 -3.15625 7.609375 -3.472656 7.609375 -4.109375 L 7.609375 -15 C 7.609375 -15.65625 7.289062 -15.984375 6.65625 -15.984375 L 4.453125 -15.984375 Z M 4.453125 -3.15625 "/></g></g></g></svg>