<svg width="41" height="40" viewBox="0 0 41 40" fill="none" xmlns="http://www.w3.org/2000/svg">
<g clip-path="url(#clip0_27_569)">
<path d="M6.33336 13.3333C6.33368 11.7532 6.74247 10.2 7.52005 8.82439C8.29763 7.44881 9.41759 6.29759 10.7713 5.48244C12.1249 4.6673 13.6663 4.21592 15.2458 4.1721C16.8254 4.12829 18.3894 4.49352 19.7862 5.23237C21.1829 5.97121 22.365 7.05857 23.2176 8.38893C24.0703 9.71929 24.5646 11.2475 24.6525 12.8252C24.7404 14.4029 24.419 15.9765 23.7195 17.3934C23.02 18.8102 21.966 20.0222 20.66 20.9117C23.4725 21.9432 25.912 23.7929 27.6644 26.2225C29.4169 28.6522 30.4021 31.5507 30.4934 34.545C30.4895 34.8678 30.361 35.1767 30.1348 35.407C29.9085 35.6374 29.602 35.7714 29.2793 35.7811C28.9566 35.7907 28.6426 35.6754 28.403 35.459C28.1633 35.2426 28.0166 34.942 27.9934 34.62C27.8941 31.3724 26.5343 28.2911 24.202 26.029C21.8697 23.7669 18.7483 22.5018 15.4992 22.5018C12.2501 22.5018 9.12868 23.7669 6.7964 26.029C4.46412 28.2911 3.10427 31.3724 3.00502 34.62C2.98834 34.9464 2.84448 35.2533 2.60429 35.4749C2.36409 35.6965 2.04665 35.8152 1.71998 35.8056C1.3933 35.7961 1.08338 35.6589 0.856591 35.4236C0.629806 35.1883 0.504203 34.8735 0.506689 34.5467C0.597608 31.5521 1.5827 28.6532 3.33517 26.2232C5.08763 23.7932 7.52726 21.9433 10.34 20.9117C9.10515 20.0706 8.09457 18.9405 7.39625 17.6197C6.69793 16.2989 6.33304 14.8274 6.33336 13.3333ZM15.5 6.66667C13.7319 6.66667 12.0362 7.36905 10.786 8.61929C9.53573 9.86953 8.83336 11.5652 8.83336 13.3333C8.83336 15.1014 9.53573 16.7971 10.786 18.0474C12.0362 19.2976 13.7319 20 15.5 20C17.2681 20 18.9638 19.2976 20.2141 18.0474C21.4643 16.7971 22.1667 15.1014 22.1667 13.3333C22.1667 11.5652 21.4643 9.86953 20.2141 8.61929C18.9638 7.36905 17.2681 6.66667 15.5 6.66667ZM29.3167 13.3333C29.0711 13.3333 28.83 13.35 28.5934 13.3833C28.4281 13.4129 28.2586 13.4089 28.095 13.3716C27.9313 13.3342 27.7768 13.2643 27.6408 13.166C27.5047 13.0676 27.3899 12.9429 27.3031 12.7992C27.2163 12.6556 27.1593 12.4959 27.1356 12.3297C27.1119 12.1635 27.1218 11.9942 27.1649 11.832C27.208 11.6698 27.2833 11.5179 27.3864 11.3854C27.4895 11.2529 27.6182 11.1425 27.7649 11.0608C27.9115 10.9792 28.0731 10.9279 28.24 10.91C29.8976 10.6703 31.5879 10.9887 33.0448 11.8149C34.5017 12.6411 35.6425 13.9283 36.2877 15.4739C36.9329 17.0195 37.0458 18.7357 36.6088 20.3526C36.1717 21.9694 35.2094 23.395 33.8734 24.405C35.8373 25.2844 37.5049 26.7133 38.6748 28.5194C39.8447 30.3254 40.4671 32.4315 40.4667 34.5833C40.4667 34.9149 40.335 35.2328 40.1006 35.4672C39.8661 35.7016 39.5482 35.8333 39.2167 35.8333C38.8852 35.8333 38.5672 35.7016 38.3328 35.4672C38.0984 35.2328 37.9667 34.9149 37.9667 34.5833C37.9673 32.7234 37.3684 30.9128 36.2587 29.4201C35.1491 27.9274 33.5879 26.8321 31.8067 26.2967L30.9167 26.03V23.2367L31.6 22.8883C32.6129 22.3752 33.4234 21.5358 33.9005 20.5054C34.3777 19.4751 34.4936 18.314 34.2297 17.2096C33.9658 16.1052 33.3374 15.122 32.446 14.4187C31.5546 13.7154 30.4522 13.333 29.3167 13.3333Z" fill="#080000"/>
</g>
<defs>
<clipPath id="clip0_27_569">
<rect width="40" height="40" fill="white" transform="translate(0.5)"/>
</clipPath>
</defs>
</svg>
