<svg width="41" height="40" viewBox="0 0 41 40" fill="none" xmlns="http://www.w3.org/2000/svg">
<path d="M20.5 2.5L5.5 7.5V22.5C5.5 30.7852 12.2148 37.5 20.5 37.5C28.7852 37.5 35.5 30.7852 35.5 22.5V7.5L20.5 2.5ZM32.6875 22.5C32.6875 29.2305 27.2305 34.6875 20.5 34.6875C13.7695 34.6875 8.3125 29.2305 8.3125 22.5V9.60938L20.5 5.3125L32.6875 9.60938V22.5Z" fill="#080000"/>
<path d="M15.2813 18.5586C15.1509 18.4277 14.996 18.3238 14.8254 18.2529C14.6548 18.182 14.4719 18.1455 14.2871 18.1455C14.1024 18.1455 13.9195 18.182 13.7489 18.2529C13.5783 18.3238 13.4233 18.4277 13.293 18.5586C13.1621 18.6889 13.0582 18.8439 12.9873 19.0145C12.9164 19.1851 12.8799 19.368 12.8799 19.5527C12.8799 19.7375 12.9164 19.9204 12.9873 20.091C13.0582 20.2616 13.1621 20.4165 13.293 20.5469L18.3477 25.6016L18.4297 25.6836C18.553 25.8071 18.6994 25.9051 18.8606 25.972C19.0218 26.0388 19.1946 26.0732 19.3692 26.0732C19.5437 26.0732 19.7165 26.0388 19.8777 25.972C20.0389 25.9051 20.1853 25.8071 20.3086 25.6836L29.0391 16.9531C29.1626 16.8298 29.2606 16.6834 29.3275 16.5222C29.3943 16.361 29.4287 16.1882 29.4287 16.0137C29.4287 15.8392 29.3943 15.6663 29.3275 15.5051C29.2606 15.3439 29.1626 15.1975 29.0391 15.0742L28.9297 14.9648C28.8064 14.8413 28.66 14.7433 28.4988 14.6765C28.3376 14.6096 28.1648 14.5752 27.9903 14.5752C27.8157 14.5752 27.6429 14.6096 27.4817 14.6765C27.3205 14.7433 27.1741 14.8413 27.0508 14.9648L19.3672 22.6445L15.2813 18.5586Z" fill="#080000"/>
</svg>
