<svg width="41" height="40" viewBox="0 0 41 40" fill="none" xmlns="http://www.w3.org/2000/svg">
<path d="M32.265 38.5083L21.97 31.0217C21.5428 30.7111 21.0282 30.5438 20.5 30.5438C19.9718 30.5438 19.4572 30.7111 19.03 31.0217L8.735 38.5083C8.5487 38.6438 8.3286 38.7251 8.099 38.7433C7.8694 38.7616 7.63923 38.716 7.43388 38.6117C7.22853 38.5074 7.056 38.3484 6.93532 38.1522C6.81464 37.956 6.7505 37.7303 6.75 37.5V3.75C6.75 3.08696 7.01339 2.45107 7.48223 1.98223C7.95107 1.51339 8.58696 1.25 9.25 1.25H31.75C32.413 1.25 33.0489 1.51339 33.5178 1.98223C33.9866 2.45107 34.25 3.08696 34.25 3.75V37.5C34.2495 37.7303 34.1854 37.956 34.0647 38.1522C33.944 38.3484 33.7715 38.5074 33.5661 38.6117C33.3608 38.716 33.1306 38.7616 32.901 38.7433C32.6714 38.7251 32.4513 38.6438 32.265 38.5083Z" stroke="black" stroke-width="1.5" stroke-linecap="round" stroke-linejoin="round"/>
<path d="M21.3834 9.65167L23.465 13.7483H27.01C27.2052 13.7436 27.3972 13.7978 27.5611 13.9039C27.7249 14.0101 27.8529 14.1631 27.9283 14.3432C28.0038 14.5232 28.0231 14.7219 27.9839 14.9131C27.9446 15.1043 27.8486 15.2792 27.7084 15.415L24.4534 18.6183L26.2567 22.76C26.3373 22.9497 26.3561 23.1601 26.3103 23.3611C26.2645 23.5621 26.1564 23.7436 26.0016 23.8797C25.8467 24.0157 25.6528 24.0995 25.4475 24.119C25.2423 24.1385 25.0361 24.0928 24.8584 23.9883L20.5 21.53L16.1417 23.9833C15.9638 24.0866 15.758 24.1314 15.5533 24.1114C15.3486 24.0914 15.1554 24.0077 15.0009 23.8719C14.8464 23.7362 14.7384 23.5554 14.6922 23.355C14.646 23.1546 14.6639 22.9447 14.7434 22.755L16.5467 18.6133L13.2917 15.41C13.1514 15.2742 13.0554 15.0993 13.0161 14.9081C12.9769 14.7169 12.9963 14.5182 13.0717 14.3382C13.1471 14.1581 13.2751 14.0051 13.439 13.8989C13.6028 13.7928 13.7949 13.7386 13.99 13.7433H17.535L19.6167 9.65334C19.6993 9.49002 19.8256 9.35281 19.9816 9.25695C20.1375 9.1611 20.317 9.11035 20.5 9.11035C20.6831 9.11035 20.8625 9.1611 21.0185 9.25695C21.1744 9.35281 21.3007 9.48835 21.3834 9.65167Z" stroke="black" stroke-width="1.5" stroke-linecap="round" stroke-linejoin="round"/>
</svg>
