<svg width="40" height="40" viewBox="0 0 40 40" fill="none" xmlns="http://www.w3.org/2000/svg">
<path d="M20.0001 28.7917L13.0834 32.9583C12.7778 33.1528 12.4584 33.2361 12.1251 33.2083C11.7917 33.1806 11.5001 33.0694 11.2501 32.875C11.0001 32.6806 10.8056 32.4378 10.6667 32.1467C10.5278 31.8556 10.5001 31.5289 10.5834 31.1667L12.4167 23.2917L6.29173 18C6.01395 17.75 5.84062 17.465 5.77173 17.145C5.70284 16.825 5.72339 16.5128 5.83339 16.2083C5.94339 15.9039 6.11006 15.6539 6.33339 15.4583C6.55673 15.2628 6.86228 15.1378 7.25006 15.0833L15.3334 14.375L18.4584 6.95833C18.5973 6.625 18.8128 6.375 19.1051 6.20833C19.3973 6.04167 19.6956 5.95833 20.0001 5.95833C20.3045 5.95833 20.6028 6.04167 20.8951 6.20833C21.1873 6.375 21.4028 6.625 21.5417 6.95833L24.6667 14.375L32.7501 15.0833C33.1389 15.1389 33.4445 15.2639 33.6667 15.4583C33.8889 15.6528 34.0556 15.9028 34.1667 16.2083C34.2778 16.5139 34.2989 16.8267 34.2301 17.1467C34.1612 17.4667 33.9873 17.7511 33.7084 18L27.5834 23.2917L29.4167 31.1667C29.5001 31.5278 29.4723 31.8544 29.3334 32.1467C29.1945 32.4389 29.0001 32.6817 28.7501 32.875C28.5001 33.0683 28.2084 33.1794 27.8751 33.2083C27.5417 33.2372 27.2223 33.1539 26.9167 32.9583L20.0001 28.7917Z" fill="white"/>
</svg>
