<svg width="41" height="40" viewBox="0 0 41 40" fill="none" xmlns="http://www.w3.org/2000/svg">
<path d="M20.5 3.33337C11.31 3.33337 3.83331 10.81 3.83331 20V26.905C3.83331 28.6117 5.32831 30 7.16665 30H8.83331C9.27534 30 9.69926 29.8244 10.0118 29.5119C10.3244 29.1993 10.5 28.7754 10.5 28.3334V19.7617C10.5 19.3197 10.3244 18.8958 10.0118 18.5832C9.69926 18.2706 9.27534 18.095 8.83331 18.095H7.31998C8.24665 11.645 13.7966 6.66671 20.5 6.66671C27.2033 6.66671 32.7533 11.645 33.68 18.095H32.1666C31.7246 18.095 31.3007 18.2706 30.9881 18.5832C30.6756 18.8958 30.5 19.3197 30.5 19.7617V30C30.5 31.8384 29.005 33.3334 27.1666 33.3334H23.8333V31.6667H17.1666V36.6667H27.1666C30.8433 36.6667 33.8333 33.6767 33.8333 30C35.6716 30 37.1666 28.6117 37.1666 26.905V20C37.1666 10.81 29.69 3.33337 20.5 3.33337Z" fill="#080000"/>
</svg>
